<?xml version="1.0" encoding="utf-8"?>
<!-- Generator: Adobe Illustrator 17.0.0, SVG Export Plug-In . SVG Version: 6.00 Build 0)  -->
<!DOCTYPE svg PUBLIC "-//W3C//DTD SVG 1.1//EN" "http://www.w3.org/Graphics/SVG/1.1/DTD/svg11.dtd">
<svg version="1.1" id="Settings_1_" xmlns="http://www.w3.org/2000/svg" xmlns:xlink="http://www.w3.org/1999/xlink" x="0px"
	 y="0px" width="95.76px" height="95.683px" viewBox="0 0 95.76 95.683" enable-background="new 0 0 95.76 95.683"
	 xml:space="preserve">
<path fill="#BDE9FA" d="M91.412,50.45c-5.338-1.43-6.547-13.946-2.169-16.473c1.435-0.832,2.548-2.012,3.284-3.373
	c-1.139-4.153-5.025-10.136-7.217-12.797c-1.603-0.075-3.242,0.292-4.733,1.153c-4.776,2.76-14.65-4.621-13.179-10.115
	c0.46-1.716,0.217-3.798-0.158-5.014c-2.715-1.404-9.143-3.292-13.917-3.76c-1.029,0.749-2.207,2.559-2.666,4.287
	c-1.558,5.809-13.884,6.653-16.528,2.075c-0.883-1.53-2.508-2.955-3.632-3.423c-3.089,0.936-9.8,4.827-12.515,7.073
	c0.187,1.591,0.224,3.439,1.136,5.017c2.642,4.579-4.513,14.762-10.163,13.248c-1.859-0.497-3.809-0.356-5.401,0.299
	c-1.311,2.903-3.295,10.56-3.483,13.648c0.375,0.842,2.609,2.322,4.397,2.8c7.691,2.062,7.751,13.34,2.179,16.557
	c-1.574,0.909-2.922,2.172-3.483,3.764c0.936,2.995,4.698,9.579,7.131,12.388c1.591,0.186,3.439-0.222,5.018-1.135
	c4.976-2.875,14.928,3.886,13.246,10.165c-0.437,1.634-0.195,3.353,0.085,5.039c3.744,1.591,10.518,3.83,14.263,3.736
	c1.216-1.124,1.967-2.689,2.394-4.287c1.473-5.496,13.629-7.25,16.501-2.274c0.802,1.391,1.926,2.712,3.236,3.46
	c3.931-1.124,10.841-4.99,13.184-7.424c0.092-1.778-0.578-3.263-1.409-4.706c-3.105-5.373,4.148-14.781,10.112-13.182
	c1.633,0.436,3.412,0.289,4.91-0.085c1.31-3.277,3.482-9.131,3.855-13.998C94.381,51.615,93.137,50.912,91.412,50.45z M73.241,54.08
	c-3.64,13.594-17.61,21.659-31.203,18.018c-13.59-3.643-21.655-17.616-18.014-31.209S41.635,19.23,55.226,22.872
	S76.883,40.485,73.241,54.08z"/>
</svg>
